PathFileType	4	(X/Y/Z)	Patient4_TMGait_0pt8_01_right_46.trc.trc
DataRate	CameraRate	NumFrames	NumMarkers	Units	OrigDataRate	OrigDataStartFrame	OrigNumFrames
92.105263157895	92.105263157895	4	33	mm	92.105263157895	106	       141
Frame#	Time	Sacral			L.Shoulder			Chest			R.Shoulder			Neck			R.ASIS			L.ASIS			R.Thigh.Superior			R.Thigh.Lateral			R.Thigh.Inferior			R.Patella			L.Thigh.Superior			L.Thigh.Lateral			L.Thigh.Inferior			L.Patella			L.Shank.Superior			L.Shank.Lateral			L.Shank.Inferior			R.Shank.Superior			R.Shank.Lateral			R.Shank.Inferior			R.Heel			R.Midfoot.Superior			R.Midfoot.Lateral			R.Toe			L.Heel			L.Midfoot.Lateral			L.Midfoot.Superior			L.Toe			L.Elbow			L.Wrist			R.Elbow			R.Wrist			
		X1	Y1	Z1	X2	Y2	Z2	X3	Y3	Z3	X4	Y4	Z4	X5	Y5	Z5	X6	Y6	Z6	X7	Y7	Z7	X8	Y8	Z8	X9	Y9	Z9	X10	Y10	Z10	X11	Y11	Z11	X12	Y12	Z12	X13	Y13	Z13	X14	Y14	Z14	X15	Y15	Z15	X16	Y16	Z16	X17	Y17	Z17	X18	Y18	Z18	X19	Y19	Z19	X20	Y20	Z20	X21	Y21	Z21	X22	Y22	Z22	X23	Y23	Z23	X24	Y24	Z24	X25	Y25	Z25	X26	Y26	Z26	X27	Y27	Z27	X28	Y28	Z28	X29	Y29	Z29	X30	Y30	Z30	X31	Y31	Z31	X32	Y32	Z32	X33	Y33	Z33	

106	52.960000000000	864.187266073032	1013.858478736525	446.564817152176	1063.612089120886	1438.051983886026	270.097731108060	1157.170313436264	1364.138652428110	435.024442642756	1069.155275115743	1438.035120255319	606.708750367682	1043.146754097827	1499.170123648015	426.912214207332	1087.989554846652	950.391873023044	568.308051547218	1080.063593918049	964.773912063589	294.220570738942	1181.896935471557	798.644933682448	540.351749991934	1158.868154521416	676.884251974716	620.510016317560	1252.167031061366	645.770232761151	541.747904247012	1285.436399013957	535.638868738583	567.832305469372	1114.424393507069	747.846916634590	321.892748927567	1015.224938955458	639.319715773931	262.055868013877	1094.156993263456	555.125516424112	323.483154858448	1088.749727088144	486.672358915435	333.734040354497	1061.019071601960	416.750098132378	326.181675685645	966.596864499633	304.747976010033	279.646736511970	1017.308113375898	192.698369754758	349.255026727190	1216.997201463706	452.720231570633	575.295663829845	1099.779139793036	400.137825427650	634.583276673185	1099.160846102315	289.691306993852	586.743739784037	907.533584195437	203.086191459785	555.628385553284	1081.692012367296	168.796563794636	603.819894668654	971.555786750481	152.656751216790	631.806546410524	1158.999460376929	65.521000221318	632.124023811562	887.356454024751	38.730339660587	399.754824937824	955.642879006498	36.004442888028	313.966339904323	1040.579425864402	96.550815546702	336.115159795544	1166.643589289750	45.205985619208	297.786588752390	1113.039140744610	1100.006112744502	128.486853656049	1297.271465088359	913.271130371020	127.529142236015	1007.270470632052	1089.768083885252	714.119894765630	1140.295188259851	865.744342104268	710.621285878418	
107	52.970857142857	863.649002073707	1013.583701267537	445.498389243840	1064.529247700317	1438.233240988448	270.661523465508	1156.867052804873	1363.849127259519	436.044149171399	1067.727931483027	1437.269858457561	607.323348761877	1043.005830143740	1498.960158582926	427.458125490663	1086.919215019929	950.570964787404	568.694279040672	1080.430434878743	964.571120350032	294.434087387161	1181.724768395927	800.486106915072	540.166710769902	1160.477936394246	678.718036513582	620.732051611929	1253.523172549485	648.276488955921	541.621803091285	1288.896913552914	539.781250773183	568.202798370902	1112.530575241093	746.585023520119	322.851424082792	1012.458792202533	638.956744795587	262.060524321145	1089.792663253942	553.968873867378	324.021396787461	1083.462197627801	485.627485888673	334.297493690092	1055.344582906768	415.911617572133	326.585338316999	960.247503702297	304.644063132716	279.714597750852	1009.641609711920	192.205922756043	349.517881681495	1223.815016780349	454.932153574068	576.209446791391	1109.701649734258	396.874071858763	636.195651100039	1114.263541997390	286.386495576154	588.583965315324	926.980939827888	190.723397245553	558.398569152774	1102.683399419676	164.430693714655	606.028139423352	993.522968558296	143.469298166193	634.570386556175	1184.747898525590	65.008470645866	634.575406858863	878.627118260483	38.756944578325	399.734062519631	946.930074479650	36.024259845862	313.974351019973	1031.962054832161	96.495078432086	336.241765216867	1157.969385937536	44.973318361079	297.812640872800	1119.294574005311	1102.552632566133	126.775234085744	1313.460498587821	926.081275091947	126.884675453200	1000.556488350353	1089.378858278149	713.573510379256	1113.783007929795	854.528622182009	716.137246223239	
108	52.981714285714	863.233706633155	1013.223528678019	444.549767310100	1065.509120463534	1438.333897662844	271.362523172383	1156.675473042466	1363.451449681036	437.157462948521	1066.490639147553	1436.385571417366	608.061351817483	1042.953823162685	1498.646013636180	428.139667319468	1085.923806766524	950.558338505596	569.135084197576	1080.872179872355	964.280510180554	294.730703009760	1181.309855190659	801.730806904366	540.162509134733	1161.368191504186	679.971843834792	621.103607619752	1254.199762548431	649.996966117699	541.803569189946	1291.373960381122	543.291163467376	568.853508511316	1110.654025328702	745.261829973697	323.801416509290	1009.646636484006	638.570185893878	262.090277032164	1085.343498508822	552.772939433609	324.545296198541	1078.109119100018	484.589584941763	334.805936672821	1049.595269662037	415.071216734937	326.953094827971	953.812571113824	304.531111422860	279.784211116797	1001.905061671379	191.715633521819	349.765981494484	1229.890224779603	456.697204106882	577.297798693592	1119.329972578005	393.048555936527	637.935747459637	1129.389256808796	282.820336670258	590.500672651693	947.232342104546	177.848503783970	561.081997303341	1124.060951300945	160.015076547201	608.188015104955	1016.205902557162	134.023963867671	637.256887466288	1210.950343883823	64.976706623058	637.044492610977	869.909313027537	38.788899092790	399.703969888683	938.212107294538	36.041142111754	313.976723422794	1023.336340681821	96.443630690435	336.354655160263	1149.280594651046	44.755368244633	297.838284948681	1125.064713036770	1104.999434385876	125.318207249016	1328.637469234921	939.420867731187	126.614713719860	994.180235897441	1088.997402541846	713.026828887939	1087.210297000287	845.457882671703	721.277963223082	
109	52.992571428571	862.952332527785	1012.780699903176	443.720526012406	1066.538033108652	1438.355083406527	272.201809781054	1156.602676196381	1362.947471525371	438.355131421924	1065.461898162495	1435.387565480961	608.920237862735	1042.997082488482	1498.227250131944	428.960859350813	1085.040704384655	950.358476794445	569.632599766568	1081.396508495592	963.896708208574	295.102013671207	1180.664949755590	802.333992236946	540.366121428596	1161.511331852834	680.583277427920	621.646843022044	1254.194331652894	650.879401642039	542.326475597886	1292.856252231076	546.107921714316	569.778532566967	1108.800434413240	743.873731348128	324.716205830423	1006.759289551988	638.174170337996	262.143716146633	1080.780861190264	551.543075043922	325.051097945922	1072.658881552600	483.566178879515	335.256449176435	1043.743780502762	414.244921760776	327.281757782840	947.271845271282	304.418977362424	279.855159019103	994.090193783320	191.238166873074	349.996635626683	1235.189982436725	457.998434553586	578.544759051976	1128.648257619675	388.710877530755	639.796682742253	1144.457645984275	279.082888234172	592.466864231147	968.242302460439	164.662826023866	563.664774044405	1145.716598344535	155.702860781698	610.284735383854	1039.526053003393	124.486591690977	639.823207060252	1237.418221596765	65.546423412937	639.426100646806	861.200665915220	38.830806646598	399.666746994028	929.489101698885	36.056124558466	313.976125729833	1014.702854469418	96.394188854975	336.452203399074	1140.578278807033	44.549323811653	297.861910557743	1130.386985944016	1107.321271405237	124.124138394737	1342.742430917838	953.187258276954	126.712058666659	988.012598605186	1088.706795717149	712.540826147527	1060.944346648151	838.582933410081	725.985964085951	
